{"title":"Bedevilled.2010.DVDRip.x264.AC3-BAUM","uid":6124183,"size":1579988937,"categoryP":"video","categoryS":"movies","magnet":"?xt=urn:btih:70dcb14eaed0c65dcdc5ac8264eb1de49a76e830&amp;dn=Bedevilled.2010.DVDRip.x264.AC3-BAUM&amp;tr=udp%3A%2F%2Ftracker.openbittorrent.com%3A80&amp;tr=udp%3A%2F%2Fopen.demonii.com%3A1337&amp;tr=udp%3A%2F%2Ftracker.coppersurfer.tk%3A6969&amp;tr=udp%3A%2F%2Fexodus.desync.com%3A6969","seeders":0,"leechers":1,"uploader":"cinesimon","files":-1,"time":1295828533,"description":"Title: Bedevilled (2010)\nYear: 2010\nCountry: South Korea\nLanguage: Korean\nFilm Genre: Thriller\nSubtitles: English(srt/idx,sub), Korean(smi/idx,sub)\nDirector: Jang Cheol-so\nCast: Seo Yeong-hee, Ji Seong-won, Baek Soo-ryeon, Park Jeong-hak, Bae Seong-woo, Woo Yong\nIMDB Link: http://www.imdb.com/title/tt1646959/\nInfo Link: http://www.hancinema.net/korean_movie_Bedevilled.php\n\n\nPLOT or SYNOPSIS\nSick of all the inhumane treatment by others, Bok-nam tries to escape the island with her daughter, but her daughter gets killed in the process. When she loses the only thing that had kept her going, Bok-nam takes a sickle in her hand for revenge.\n\nInternational Film Festivals\n2010 Cannes International Film Festival , International Critic's Week\n2010 Puchon International Fantastic Film Festival, Feature\n\n\nGeneral\nComplete name : Bedevilled.2010.DVDRip.x264.AC3-BAUM.mkv\nFormat : Matroska\nFile size : 1.47 GiB\nDuration : 1h 55mn\nOverall bit rate : 1 811 Kbps\nWriting application : HandBrake 0.9.5\nWriting library : libmkv 0.6.4.1\n\nVideo #0\nID : 1\nFormat : AVC\nFormat/Info : Advanced Video Codec\nFormat profile : &lt;a class=&quot;__cf_email__&quot; href=&quot;/cdn-cgi/l/email-protection&quot; data-cfemail=&quot;2568444c4b6569160b15&quot;&gt;[email&amp;#160;protected]&lt;/a&gt;&lt;script cf-hash='f9e31' type=&quot;text/javascript&quot;&gt;\n/* &lt;![CDATA[ */!function(){try{var t=&quot;currentScript&quot;in document?document.currentScript:function(){for(var t=document.getElementsByTagName(&quot;script&quot;),e=t.length;e--;)if(t[e].getAttribute(&quot;cf-hash&quot;))return t[e]}();if(t&amp;&amp;t.previousSibling){var e,r,n,i,c=t.previousSibling,a=c.getAttribute(&quot;data-cfemail&quot;);if(a){for(e=&quot;&quot;,r=parseInt(a.substr(0,2),16),n=2;a.length-n;n+=2)i=parseInt(a.substr(n,2),16)^r,e+=String.fromCharCode(i);e=document.createTextNode(e),c.parentNode.replaceChild(e,c)}}}catch(u){}}();/* ]]&gt; */&lt;/script&gt;\nFormat settings, CABAC : Yes\nFormat settings, ReFrames : 4 frames\nMuxing mode : Container profile=&lt;a class=&quot;__cf_email__&quot; href=&quot;/cdn-cgi/l/email-protection&quot; data-cfemail=&quot;184d767376776f76582b3628&quot;&gt;[email&amp;#160;protected]&lt;/a&gt;&lt;script cf-hash='f9e31' type=&quot;text/javascript&quot;&gt;\n/* &lt;![CDATA[ */!function(){try{var t=&quot;currentScript&quot;in document?document.currentScript:function(){for(var t=document.getElementsByTagName(&quot;script&quot;),e=t.length;e--;)if(t[e].getAttribute(&quot;cf-hash&quot;))return t[e]}();if(t&amp;&amp;t.previousSibling){var e,r,n,i,c=t.previousSibling,a=c.getAttribute(&quot;data-cfemail&quot;);if(a){for(e=&quot;&quot;,r=parseInt(a.substr(0,2),16),n=2;a.length-n;n+=2)i=parseInt(a.substr(n,2),16)^r,e+=String.fromCharCode(i);e=document.createTextNode(e),c.parentNode.replaceChild(e,c)}}}catch(u){}}();/* ]]&gt; */&lt;/script&gt;\nCodec ID : V_MPEG4/ISO/AVC\nDuration : 1h 55mn\nBit rate : 1 550 Kbps\nWidth : 720 pixels\nHeight : 400 pixels\nDisplay aspect ratio : 16:9\nFrame rate mode : Variable\nFrame rate : 23.976 fps\nColor space : YUV\nChroma subsampling : 4:2:0\nBit depth : 8 bits\nScan type : Progressive\nBits/(Pixel*Frame) : 0.224\nStream size : 1.23 GiB (84%)\nWriting library : x264 core 112\n\nAudio #1\nID : 2\nFormat : AC-3\nFormat/Info : Audio Coding 3\nMode extension : CM (complete main)\nCodec ID : A_AC3\nDuration : 1h 55mn\nBit rate mode : Constant\nBit rate : 256 Kbps\nChannel(s) : 6 channels\nChannel positions : Front: L C R, Side: L R, LFE\nSampling rate : 48.0 KHz\nBit depth : 16 bits\nStream size : 212 MiB (14%)\nLanguage : Korean","torrent":{"xt":"urn:btih:70dcb14eaed0c65dcdc5ac8264eb1de49a76e830","amp;dn":"Bedevilled.2010.DVDRip.x264.AC3-BAUM","amp;tr":["udp%3A%2F%2Ftracker.openbittorrent.com%3A80","udp%3A%2F%2Fopen.demonii.com%3A1337","udp%3A%2F%2Ftracker.coppersurfer.tk%3A6969","udp%3A%2F%2Fexodus.desync.com%3A6969"],"infoHash":"70dcb14eaed0c65dcdc5ac8264eb1de49a76e830","infoHashBuffer":{"type":"Buffer","data":[112,220,177,78,174,208,198,93,205,197,172,130,100,235,29,228,154,118,232,48]},"announce":[],"urlList":[]}}